<svg xmlns="http://www.w3.org/2000/svg" data-name="Layer 1" viewBox="0 0 32 32"><circle cx="13" cy="16" r="12.5" fill="#c8c5cc"/><path fill="#aeadb3" d="M13,3.5c-.34,0-.67,0-1,0a12.49,12.49,0,0,1,0,24.9c.33,0,.66.05,1,.05a12.5,12.5,0,0,0,0-25Z"/><circle cx="13" cy="8" r="2.5" fill="#57565c"/><path fill="#3c3b41" d="M13,5.5a2.73,2.73,0,0,0-.5,0,2.5,2.5,0,0,1,0,4.9,2.73,2.73,0,0,0,.5.05,2.5,2.5,0,0,0,0-5Z"/><circle cx="13" cy="16" r="2.5" fill="#57565c"/><path fill="#3c3b41" d="M13,13.5a2.73,2.73,0,0,0-.5.05,2.5,2.5,0,0,1,0,4.9,2.73,2.73,0,0,0,.5.05,2.5,2.5,0,0,0,0-5Z"/><circle cx="13" cy="24" r="2.5" fill="#57565c"/><path fill="#3c3b41" d="M13,21.5a2.73,2.73,0,0,0-.5.05,2.5,2.5,0,0,1,0,4.9,2.73,2.73,0,0,0,.5.05,2.5,2.5,0,0,0,0-5Z"/><circle cx="6.07" cy="20" r="2.5" fill="#57565c"/><path fill="#3c3b41" d="M8.24,18.75a2.49,2.49,0,0,0-2.67-1.19,2.49,2.49,0,0,1,.75,4.61,2.6,2.6,0,0,1-.75.27,2.49,2.49,0,0,0,2.67-3.69Z"/><circle cx="19.93" cy="12" r="2.5" fill="#57565c"/><path fill="#3c3b41" d="M22.09,10.75a2.48,2.48,0,0,0-2.66-1.19,2.48,2.48,0,0,1,1.66,1.19,2.51,2.51,0,0,1-.91,3.42,2.71,2.71,0,0,1-.75.27,2.48,2.48,0,0,0,2.66-3.69Z"/><circle cx="19.93" cy="20" r="2.5" fill="#57565c"/><path fill="#3c3b41" d="M21.18,17.83a2.52,2.52,0,0,0-1.75-.27,2.71,2.71,0,0,1,.75.27,2.51,2.51,0,0,1,.91,3.42,2.48,2.48,0,0,1-1.66,1.19,2.48,2.48,0,0,0,2.66-1.19A2.51,2.51,0,0,0,21.18,17.83Z"/><circle cx="6.07" cy="12" r="2.5" fill="#57565c"/><path fill="#3c3b41" d="M7.32,9.83a2.51,2.51,0,0,0-1.75-.27,2.6,2.6,0,0,1,.75.27,2.49,2.49,0,0,1-.75,4.61A2.5,2.5,0,0,0,7.32,9.83Z"/><path d="M6.85,17.1a3,3,0,0,0-3.38,4.4A3,3,0,0,0,6.08,23a3,3,0,0,0,1.49-.4,3,3,0,0,0-.72-5.5Zm.22,4.63a2,2,0,0,1-2-3.46,2,2,0,0,1,1-.27,1.86,1.86,0,0,1,.52.07A2,2,0,0,1,7.8,19,2,2,0,0,1,7.07,21.73ZM18,28a13,13,0,1,0-5,1H32V28ZM1,16A12,12,0,1,1,13,28,12,12,0,0,1,1,16Zm18.15-1.1a3,3,0,0,0,.78.1,3.06,3.06,0,0,0,1.5-.4,3,3,0,1,0-2.28.3Zm-.22-4.63a2,2,0,1,1,2,3.46A2,2,0,0,1,18.2,13,2,2,0,0,1,18.93,10.27ZM13,21a3,3,0,1,0,3,3A3,3,0,0,0,13,21Zm0,5a2,2,0,1,1,2-2A2,2,0,0,1,13,26Zm0-13a3,3,0,1,0,3,3A3,3,0,0,0,13,13Zm0,5a2,2,0,1,1,2-2A2,2,0,0,1,13,18ZM13,5a3,3,0,1,0,3,3A3,3,0,0,0,13,5Zm0,5a2,2,0,1,1,2-2A2,2,0,0,1,13,10ZM7.57,9.4a3,3,0,0,0-3,5.2,3.06,3.06,0,0,0,1.5.4,3,3,0,0,0,.78-.1,3,3,0,0,0,.72-5.5ZM7.8,13a2,2,0,0,1-2.73.73A2,2,0,1,1,7.8,13Zm14.73,8.5a3,3,0,0,0-1.1-4.1,3,3,0,0,0-2.28-.3,3,3,0,0,0-.72,5.5,3,3,0,0,0,1.49.4A3,3,0,0,0,22.53,21.5Zm-.87-.5a2,2,0,1,1-3.46-2,2,2,0,0,1,2.73-.73A2,2,0,0,1,21.66,21Z"/></svg>